<?xml version="1.0" encoding="UTF-8" standalone="no"?>
<!DOCTYPE svg PUBLIC "-//W3C//DTD SVG 1.1//EN" "http://www.w3.org/Graphics/SVG/1.1/DTD/svg11.dtd">
<svg width="100%" height="100%" viewBox="0 0 801 251" version="1.1" xmlns="http://www.w3.org/2000/svg" xmlns:xlink="http://www.w3.org/1999/xlink" xml:space="preserve" xmlns:serif="http://www.serif.com/" style="fill-rule:evenodd;clip-rule:evenodd;stroke-linecap:round;stroke-linejoin:round;stroke-miterlimit:1.5;">
    <g transform="matrix(1,0,0,1,-900,-527)">
        <g id="example_series" transform="matrix(1.7319,0,0,0.757275,900.173,527.274)">
            <rect x="0" y="0" width="461.92" height="330.131" style="fill:none;"/>
            <clipPath id="_clip1">
                <rect x="0" y="0" width="461.92" height="330.131"/>
            </clipPath>
            <g clip-path="url(#_clip1)">
                <g transform="matrix(1,0,0,1.4,-25.5101,-152.294)">
                    <rect x="25.51" y="14.458" width="461.92" height="330.131" style="fill:white;"/>
                </g>
                <g transform="matrix(0.774164,0,0,1.32052,-4.91911,-132.052)">
                    <rect x="25" y="316.195" width="559.377" height="23.805" style="fill:rgb(249,250,251);"/>
                </g>
                <g transform="matrix(1,0,0,1.4,4.9738e-13,-81.9653)">
                    <g transform="matrix(0.418378,0,0,0.943232,147.32,-249.258)">
                        <rect x="176.315" y="359.313" width="130.991" height="31.979" style="fill:rgb(249,250,251);"/>
                        <g transform="matrix(1.38009,0,0,1,-10.8444,164.791)">
                            <text x="178.738px" y="214.807px" style="font-family:'Arial-BoldMT', 'Arial', sans-serif;font-weight:700;font-size:12px;">A</text>
                        </g>
                        <rect x="176.315" y="359.313" width="130.991" height="31.979" style="fill:none;stroke:rgb(156,163,175);stroke-width:1.15px;"/>
                    </g>
                    <g transform="matrix(0.418378,0,0,0.943232,147.32,-219.095)">
                        <rect x="176.315" y="359.313" width="130.991" height="31.979" style="fill:rgb(249,250,251);"/>
                        <g transform="matrix(1.38009,0,0,1,-10.8444,164.791)">
                            <text x="156.382px" y="214.809px" style="font-family:'ArialMT', 'Arial', sans-serif;font-size:12px;">Pineapple</text>
                        </g>
                        <rect x="176.315" y="359.313" width="130.991" height="31.979" style="fill:none;stroke:rgb(156,163,175);stroke-width:1.15px;"/>
                    </g>
                    <g transform="matrix(0.418378,0,0,0.943232,147.32,-188.931)">
                        <rect x="176.315" y="359.313" width="130.991" height="31.979" style="fill:rgb(249,250,251);"/>
                        <g transform="matrix(1.38009,0,0,1,-10.8444,164.791)">
                            <text x="163.395px" y="214.809px" style="font-family:'ArialMT', 'Arial', sans-serif;font-size:12px;">T<tspan x="169.395px 176.069px " y="214.809px 214.809px ">om</tspan>ato</text>
                        </g>
                        <rect x="176.315" y="359.313" width="130.991" height="31.979" style="fill:none;stroke:rgb(156,163,175);stroke-width:1.15px;"/>
                    </g>
                    <g transform="matrix(0.418378,0,0,0.943232,147.32,-158.768)">
                        <rect x="176.315" y="359.313" width="130.991" height="31.979" style="fill:rgb(249,250,251);"/>
                        <g transform="matrix(1.38009,0,0,1,-10.8444,164.791)">
                            <text x="145.381px" y="214.809px" style="font-family:'ArialMT', 'Arial', sans-serif;font-size:12px;">Green Pepper</text>
                        </g>
                        <rect x="176.315" y="359.313" width="130.991" height="31.979" style="fill:none;stroke:rgb(156,163,175);stroke-width:1.15px;"/>
                    </g>
                    <g transform="matrix(0.418378,0,0,0.943232,147.32,-128.605)">
                        <rect x="176.315" y="359.313" width="130.991" height="31.979" style="fill:rgb(249,250,251);"/>
                        <g transform="matrix(1.38009,0,0,1,-10.8444,164.791)">
                            <text x="162.39px" y="214.809px" style="font-family:'ArialMT', 'Arial', sans-serif;font-size:12px;">Cheese</text>
                        </g>
                        <rect x="176.315" y="359.313" width="130.991" height="31.979" style="fill:none;stroke:rgb(156,163,175);stroke-width:1.15px;"/>
                    </g>
                </g>
                <g transform="matrix(0.26763,0,0,1.32052,138.842,-430.926)">
                    <rect x="176.315" y="359.313" width="130.991" height="31.979" style="fill:rgb(243,232,255);"/>
                    <g transform="matrix(2.15745,0,0,1,-116.265,164.791)">
                        <text x="150.3px" y="214.807px" style="font-family:'Arial-BoldMT', 'Arial', sans-serif;font-weight:700;font-size:12px;">index</text>
                    </g>
                    <rect x="176.315" y="359.313" width="130.991" height="31.979" style="fill:none;stroke:rgb(192,132,252);stroke-width:1.28px;"/>
                </g>
                <g transform="matrix(0.26763,0,0,1.32052,138.842,-388.698)">
                    <rect x="176.315" y="359.313" width="130.991" height="31.979" style="fill:rgb(243,232,255);"/>
                    <g transform="matrix(2.15745,0,0,1,-116.265,164.791)">
                        <text x="162.634px" y="214.809px" style="font-family:'ArialMT', 'Arial', sans-serif;font-size:12px;">0</text>
                    </g>
                    <rect x="176.315" y="359.313" width="130.991" height="31.979" style="fill:none;stroke:rgb(192,132,252);stroke-width:1.28px;"/>
                </g>
                <g transform="matrix(0.26763,0,0,1.32052,138.842,-346.469)">
                    <rect x="176.315" y="359.313" width="130.991" height="31.979" style="fill:rgb(243,232,255);"/>
                    <g transform="matrix(2.15745,0,0,1,-116.265,164.791)">
                        <text x="162.634px" y="214.809px" style="font-family:'ArialMT', 'Arial', sans-serif;font-size:12px;">1</text>
                    </g>
                    <rect x="176.315" y="359.313" width="130.991" height="31.979" style="fill:none;stroke:rgb(192,132,252);stroke-width:1.28px;"/>
                </g>
                <g transform="matrix(0.26763,0,0,1.32052,138.842,-304.241)">
                    <rect x="176.315" y="359.313" width="130.991" height="31.979" style="fill:rgb(243,232,255);"/>
                    <g transform="matrix(2.15745,0,0,1,-116.265,164.791)">
                        <text x="162.634px" y="214.809px" style="font-family:'ArialMT', 'Arial', sans-serif;font-size:12px;">2</text>
                    </g>
                    <rect x="176.315" y="359.313" width="130.991" height="31.979" style="fill:none;stroke:rgb(192,132,252);stroke-width:1.28px;"/>
                </g>
                <g transform="matrix(0.26763,0,0,1.32052,138.842,-262.013)">
                    <rect x="176.315" y="359.313" width="130.991" height="31.979" style="fill:rgb(243,232,255);"/>
                    <g transform="matrix(2.15745,0,0,1,-116.265,164.791)">
                        <text x="162.634px" y="214.809px" style="font-family:'ArialMT', 'Arial', sans-serif;font-size:12px;">3</text>
                    </g>
                    <rect x="176.315" y="359.313" width="130.991" height="31.979" style="fill:none;stroke:rgb(192,132,252);stroke-width:1.28px;"/>
                </g>
                <g transform="matrix(0.5774,0,0,1.32052,-34.9944,229.406)">
                    <text x="95.607px" y="59.385px" style="font-family:'Arial-BoldMT', 'Arial', sans-serif;font-weight:700;font-size:14px;fill:rgb(75,85,99);">The Series (A<tspan x="184.563px 188.453px " y="59.385px 59.385px "> P</tspan>andas Data Structure)</text>
                </g>
                <g transform="matrix(0.5774,0,0,1.32052,-939.074,-133.035)">
                    <text x="2124.18px" y="207.713px" style="font-family:'ArialMT', 'Arial', sans-serif;font-size:14px;">The</text>
                    <text x="2152.2px" y="207.713px" style="font-family:'Arial-ItalicMT', 'Arial', sans-serif;font-style:italic;font-size:14px;">name</text>
                    <text x="2191.11px" y="207.713px" style="font-family:'ArialMT', 'Arial', sans-serif;font-size:14px;">of this</text>
                    <text x="2124.18px" y="222.171px" style="font-family:'ArialMT', 'Arial', sans-serif;font-size:14px;">series is &quot;A&quot;</text>
                </g>
                <g transform="matrix(0.575006,0,0,1.32052,-240.957,-123.626)">
                    <path d="M444.155,333.619L1197.28,333.619" style="fill:none;stroke:rgb(81,81,81);stroke-width:1.34px;"/>
                </g>
            </g>
        </g>
    </g>
</svg>
