<?xml version="1.0" encoding="UTF-8" standalone="no"?>
<!DOCTYPE svg PUBLIC "-//W3C//DTD SVG 1.1//EN" "http://www.w3.org/Graphics/SVG/1.1/DTD/svg11.dtd">
<svg width="100%" height="100%" viewBox="0 0 801 351" version="1.1" xmlns="http://www.w3.org/2000/svg" xmlns:xlink="http://www.w3.org/1999/xlink" xml:space="preserve" xmlns:serif="http://www.serif.com/" style="fill-rule:evenodd;clip-rule:evenodd;stroke-linecap:round;stroke-linejoin:round;stroke-miterlimit:1.5;">
    <g transform="matrix(1,0,0,1,-1773,-427)">
        <g id="pd_merge" transform="matrix(1.7319,0,0,1.06018,1773.28,427.274)">
            <rect x="0" y="0" width="461.92" height="330.131" style="fill:none;"/>
            <clipPath id="_clip1">
                <rect x="0" y="0" width="461.92" height="330.131"/>
            </clipPath>
            <g clip-path="url(#_clip1)">
                <g transform="matrix(1,0,0,1,-25.5101,-14.4583)">
                    <rect x="25.51" y="14.458" width="461.92" height="330.131" style="fill:white;"/>
                </g>
                <g transform="matrix(0.774164,0,0,0.943232,-4.91911,0)">
                    <rect x="25" y="316.195" width="559.377" height="23.805" style="fill:rgb(249,250,251);"/>
                </g>
                <g transform="matrix(0.140656,0,0,0.495725,191.739,-108.17)">
                    <rect x="176.315" y="359.313" width="130.991" height="31.979" style="fill:rgb(243,232,255);"/>
                    <g transform="matrix(4.10506,0,0,1.90273,-380.386,-10.8107)">
                        <text x="141.121px" y="205.789px" style="font-family:'Arial-BoldMT', 'Arial', sans-serif;font-weight:700;font-size:8px;">index</text>
                    </g>
                    <rect x="176.315" y="359.313" width="130.991" height="31.979" style="fill:none;stroke:rgb(192,132,252);stroke-width:2.44px;"/>
                </g>
                <g transform="matrix(0.140656,0,0,0.495725,191.739,-92.3178)">
                    <rect x="176.315" y="359.313" width="130.991" height="31.979" style="fill:rgb(243,232,255);stroke:rgb(192,132,252);stroke-width:2.44px;"/>
                </g>
                <g transform="matrix(0.140656,0,0,0.495725,191.739,-76.4652)">
                    <rect x="176.315" y="359.313" width="130.991" height="31.979" style="fill:rgb(243,232,255);stroke:rgb(192,132,252);stroke-width:2.44px;"/>
                </g>
                <g transform="matrix(0.140656,0,0,0.495725,191.739,-60.6127)">
                    <rect x="176.315" y="359.313" width="130.991" height="31.979" style="fill:rgb(243,232,255);stroke:rgb(192,132,252);stroke-width:2.44px;"/>
                </g>
                <g transform="matrix(0.140656,0,0,0.495725,58.2732,-108.17)">
                    <rect x="176.315" y="359.313" width="130.991" height="31.979" style="fill:rgb(243,232,255);"/>
                    <g transform="matrix(4.10506,0,0,1.90273,-380.386,-10.8107)">
                        <text x="141.121px" y="205.789px" style="font-family:'Arial-BoldMT', 'Arial', sans-serif;font-weight:700;font-size:8px;">index</text>
                    </g>
                    <rect x="176.315" y="359.313" width="130.991" height="31.979" style="fill:none;stroke:rgb(192,132,252);stroke-width:2.44px;"/>
                </g>
                <g transform="matrix(0.219883,0,0,0.495725,62.7289,-108.17)">
                    <rect x="176.315" y="359.313" width="130.991" height="31.979" style="fill:rgb(254,243,199);"/>
                    <g transform="matrix(2.62594,0,0,1.90273,-179.799,-10.8107)">
                        <text x="156.555px" y="205.789px" style="font-family:'Arial-BoldMT', 'Arial', sans-serif;font-weight:700;font-size:8px;">ID</text>
                    </g>
                    <rect x="176.315" y="359.313" width="130.991" height="31.979" style="fill:none;stroke:rgb(250,204,21);stroke-width:2.18px;"/>
                </g>
                <g transform="matrix(0.219883,0,0,0.495725,62.7289,-92.3178)">
                    <rect x="176.315" y="359.313" width="130.991" height="31.979" style="fill:rgb(254,243,199);stroke:rgb(250,204,21);stroke-width:2.18px;"/>
                </g>
                <g transform="matrix(0.219883,0,0,0.495725,62.7289,-76.4652)">
                    <rect x="176.315" y="359.313" width="130.991" height="31.979" style="fill:rgb(254,243,199);stroke:rgb(250,204,21);stroke-width:2.18px;"/>
                </g>
                <g transform="matrix(0.219883,0,0,0.495725,62.7289,-44.7601)">
                    <rect x="176.315" y="359.313" width="130.991" height="31.979" style="fill:rgb(254,243,199);stroke:rgb(250,204,21);stroke-width:2.18px;"/>
                </g>
                <g transform="matrix(1,0,0,1,125.598,29.8628)">
                    <g transform="matrix(0.219883,0,0,0.495725,70.597,-138.033)">
                        <rect x="176.315" y="359.313" width="130.991" height="31.979" style="fill:rgb(254,243,199);"/>
                        <g transform="matrix(2.62594,0,0,1.90273,-179.799,-10.8107)">
                            <text x="156.555px" y="205.789px" style="font-family:'Arial-BoldMT', 'Arial', sans-serif;font-weight:700;font-size:8px;">ID</text>
                        </g>
                        <rect x="176.315" y="359.313" width="130.991" height="31.979" style="fill:none;stroke:rgb(250,204,21);stroke-width:2.18px;"/>
                    </g>
                    <g transform="matrix(0.219883,0,0,0.495725,70.597,-122.181)">
                        <rect x="176.315" y="359.313" width="130.991" height="31.979" style="fill:rgb(254,243,199);stroke:rgb(250,204,21);stroke-width:2.18px;"/>
                    </g>
                    <g transform="matrix(0.219883,0,0,0.495725,70.597,-106.328)">
                        <rect x="176.315" y="359.313" width="130.991" height="31.979" style="fill:rgb(254,243,199);stroke:rgb(250,204,21);stroke-width:2.18px;"/>
                    </g>
                    <g transform="matrix(0.219883,0,0,0.495725,70.597,-90.4754)">
                        <rect x="176.315" y="359.313" width="130.991" height="31.979" style="fill:rgb(254,243,199);stroke:rgb(250,204,21);stroke-width:2.18px;"/>
                    </g>
                </g>
                <g transform="matrix(1,0,0,1,-7.86804,0)">
                    <g transform="matrix(0.219883,0,0,0.495725,99.6606,-108.17)">
                        <rect x="176.315" y="359.313" width="130.991" height="31.979" style="fill:rgb(220,252,231);"/>
                        <g transform="matrix(2.62594,0,0,1.90273,-179.799,-10.8107)">
                            <text x="157.667px" y="205.789px" style="font-family:'Arial-BoldMT', 'Arial', sans-serif;font-weight:700;font-size:8px;">A</text>
                        </g>
                        <rect x="176.315" y="359.313" width="130.991" height="31.979" style="fill:none;stroke:rgb(74,222,128);stroke-width:2.18px;"/>
                    </g>
                    <g transform="matrix(0.219883,0,0,0.495725,99.6606,-92.3178)">
                        <rect x="176.315" y="359.313" width="130.991" height="31.979" style="fill:rgb(220,252,231);stroke:rgb(74,222,128);stroke-width:2.18px;"/>
                    </g>
                    <g transform="matrix(0.219883,0,0,0.495725,99.6606,-76.4652)">
                        <rect x="176.315" y="359.313" width="130.991" height="31.979" style="fill:rgb(220,252,231);stroke:rgb(74,222,128);stroke-width:2.18px;"/>
                    </g>
                    <g transform="matrix(0.219883,0,0,0.495725,99.6606,-44.7601)">
                        <rect x="176.315" y="359.313" width="130.991" height="31.979" style="fill:rgb(220,252,231);stroke:rgb(74,222,128);stroke-width:2.18px;"/>
                    </g>
                    <g transform="matrix(0.219883,0,0,0.495725,128.724,-108.17)">
                        <rect x="176.315" y="359.313" width="130.991" height="31.979" style="fill:rgb(220,252,231);"/>
                        <g transform="matrix(2.62594,0,0,1.90273,-179.799,-10.8107)">
                            <text x="157.667px" y="205.789px" style="font-family:'Arial-BoldMT', 'Arial', sans-serif;font-weight:700;font-size:8px;">B</text>
                        </g>
                        <rect x="176.315" y="359.313" width="130.991" height="31.979" style="fill:none;stroke:rgb(74,222,128);stroke-width:2.18px;"/>
                    </g>
                    <g transform="matrix(0.219883,0,0,0.495725,128.724,-92.3178)">
                        <rect x="176.315" y="359.313" width="130.991" height="31.979" style="fill:rgb(220,252,231);stroke:rgb(74,222,128);stroke-width:2.18px;"/>
                    </g>
                    <g transform="matrix(0.219883,0,0,0.495725,128.724,-76.4652)">
                        <rect x="176.315" y="359.313" width="130.991" height="31.979" style="fill:rgb(220,252,231);stroke:rgb(74,222,128);stroke-width:2.18px;"/>
                    </g>
                    <g transform="matrix(0.219883,0,0,0.495725,128.724,-44.7601)">
                        <rect x="176.315" y="359.313" width="130.991" height="31.979" style="fill:rgb(220,252,231);stroke:rgb(74,222,128);stroke-width:2.18px;"/>
                    </g>
                </g>
                <g transform="matrix(1,0,0,1,-7.86804,0)">
                    <g transform="matrix(0.219883,0,0,0.495725,99.3996,25.6833)">
                        <rect x="176.315" y="359.313" width="130.991" height="31.979" style="fill:rgb(220,252,231);"/>
                        <g transform="matrix(2.62594,0,0,1.90273,-179.799,-10.8107)">
                            <text x="157.667px" y="205.789px" style="font-family:'Arial-BoldMT', 'Arial', sans-serif;font-weight:700;font-size:8px;">A</text>
                        </g>
                        <rect x="176.315" y="359.313" width="130.991" height="31.979" style="fill:none;stroke:rgb(74,222,128);stroke-width:2.18px;"/>
                    </g>
                    <g transform="matrix(0.219883,0,0,0.495725,99.3996,41.5359)">
                        <rect x="176.315" y="359.313" width="130.991" height="31.979" style="fill:rgb(220,252,231);stroke:rgb(74,222,128);stroke-width:2.18px;"/>
                    </g>
                    <g transform="matrix(0.219883,0,0,0.495725,99.3996,57.3884)">
                        <rect x="176.315" y="359.313" width="130.991" height="31.979" style="fill:rgb(220,252,231);stroke:rgb(74,222,128);stroke-width:2.18px;"/>
                    </g>
                    <g transform="matrix(0.219883,0,0,0.495725,99.3996,73.241)">
                        <rect x="176.315" y="359.313" width="130.991" height="31.979" style="fill:rgb(220,252,231);stroke:rgb(74,222,128);stroke-width:2.18px;"/>
                    </g>
                    <g transform="matrix(0.219883,0,0,0.495725,128.463,25.6833)">
                        <rect x="176.315" y="359.313" width="130.991" height="31.979" style="fill:rgb(220,252,231);"/>
                        <g transform="matrix(2.62594,0,0,1.90273,-179.799,-10.8107)">
                            <text x="157.667px" y="205.789px" style="font-family:'Arial-BoldMT', 'Arial', sans-serif;font-weight:700;font-size:8px;">B</text>
                        </g>
                        <rect x="176.315" y="359.313" width="130.991" height="31.979" style="fill:none;stroke:rgb(74,222,128);stroke-width:2.18px;"/>
                    </g>
                    <g transform="matrix(0.219883,0,0,0.495725,128.463,41.5359)">
                        <rect x="176.315" y="359.313" width="130.991" height="31.979" style="fill:rgb(220,252,231);stroke:rgb(74,222,128);stroke-width:2.18px;"/>
                    </g>
                    <g transform="matrix(0.219883,0,0,0.495725,128.463,57.3884)">
                        <rect x="176.315" y="359.313" width="130.991" height="31.979" style="fill:rgb(220,252,231);stroke:rgb(74,222,128);stroke-width:2.18px;"/>
                    </g>
                    <g transform="matrix(0.219883,0,0,0.495725,128.463,73.241)">
                        <rect x="176.315" y="359.313" width="130.991" height="31.979" style="fill:rgb(220,252,231);stroke:rgb(74,222,128);stroke-width:2.18px;"/>
                    </g>
                </g>
                <g transform="matrix(0.140656,0,0,0.495725,58.2732,25.6833)">
                    <rect x="176.315" y="359.313" width="130.991" height="31.979" style="fill:rgb(243,232,255);"/>
                    <g transform="matrix(4.10506,0,0,1.90273,-380.386,-10.8107)">
                        <text x="141.121px" y="205.789px" style="font-family:'Arial-BoldMT', 'Arial', sans-serif;font-weight:700;font-size:8px;">index</text>
                    </g>
                    <rect x="176.315" y="359.313" width="130.991" height="31.979" style="fill:none;stroke:rgb(192,132,252);stroke-width:2.44px;"/>
                </g>
                <g transform="matrix(0.140656,0,0,0.495725,58.2732,41.5359)">
                    <rect x="176.315" y="359.313" width="130.991" height="31.979" style="fill:rgb(243,232,255);stroke:rgb(192,132,252);stroke-width:2.44px;"/>
                </g>
                <g transform="matrix(0.140656,0,0,0.495725,58.2732,57.3884)">
                    <rect x="176.315" y="359.313" width="130.991" height="31.979" style="fill:rgb(243,232,255);stroke:rgb(192,132,252);stroke-width:2.44px;"/>
                </g>
                <g transform="matrix(0.140656,0,0,0.495725,58.2732,73.241)">
                    <rect x="176.315" y="359.313" width="130.991" height="31.979" style="fill:rgb(243,232,255);stroke:rgb(192,132,252);stroke-width:2.44px;"/>
                </g>
                <g transform="matrix(1,0,0,1,-7.86804,163.716)">
                    <g transform="matrix(0.219883,0,0,0.495725,70.597,-138.033)">
                        <rect x="176.315" y="359.313" width="130.991" height="31.979" style="fill:rgb(254,243,199);"/>
                        <g transform="matrix(2.62594,0,0,1.90273,-179.799,-10.8107)">
                            <text x="156.555px" y="205.789px" style="font-family:'Arial-BoldMT', 'Arial', sans-serif;font-weight:700;font-size:8px;">ID</text>
                        </g>
                        <rect x="176.315" y="359.313" width="130.991" height="31.979" style="fill:none;stroke:rgb(250,204,21);stroke-width:2.18px;"/>
                    </g>
                    <g transform="matrix(0.219883,0,0,0.495725,70.597,-122.181)">
                        <rect x="176.315" y="359.313" width="130.991" height="31.979" style="fill:rgb(254,243,199);stroke:rgb(250,204,21);stroke-width:2.18px;"/>
                    </g>
                    <g transform="matrix(0.219883,0,0,0.495725,70.597,-106.328)">
                        <rect x="176.315" y="359.313" width="130.991" height="31.979" style="fill:rgb(254,243,199);stroke:rgb(250,204,21);stroke-width:2.18px;"/>
                    </g>
                    <g transform="matrix(0.219883,0,0,0.495725,70.597,-90.4754)">
                        <rect x="176.315" y="359.313" width="130.991" height="31.979" style="fill:rgb(254,243,199);stroke:rgb(250,204,21);stroke-width:2.18px;"/>
                    </g>
                </g>
                <g transform="matrix(1,0,0,1,-7.86804,0)">
                    <g transform="matrix(0.219883,0,0,0.495725,157.266,25.6833)">
                        <rect x="176.315" y="359.313" width="130.991" height="31.979" style="fill:rgb(224,242,254);"/>
                        <g transform="matrix(2.62594,0,0,1.90273,-179.799,-10.8107)">
                            <text x="157.667px" y="205.789px" style="font-family:'Arial-BoldMT', 'Arial', sans-serif;font-weight:700;font-size:8px;">C</text>
                        </g>
                        <rect x="176.315" y="359.313" width="130.991" height="31.979" style="fill:none;stroke:rgb(96,165,250);stroke-width:2.18px;"/>
                    </g>
                    <g transform="matrix(0.219883,0,0,0.495725,157.266,41.5359)">
                        <rect x="176.315" y="359.313" width="130.991" height="31.979" style="fill:rgb(224,242,254);stroke:rgb(96,165,250);stroke-width:2.18px;"/>
                    </g>
                    <g transform="matrix(0.219883,0,0,0.495725,157.266,57.3884)">
                        <rect x="176.315" y="359.313" width="130.991" height="31.979" style="fill:rgb(224,242,254);stroke:rgb(96,165,250);stroke-width:2.18px;"/>
                    </g>
                    <g transform="matrix(0.219883,0,0,0.495725,157.266,73.241)">
                        <rect x="176.315" y="359.313" width="130.991" height="31.979" style="fill:rgb(224,242,254);stroke:rgb(96,165,250);stroke-width:2.18px;"/>
                    </g>
                    <g transform="matrix(0.219883,0,0,0.495725,186.33,25.6833)">
                        <rect x="176.315" y="359.313" width="130.991" height="31.979" style="fill:rgb(224,242,254);"/>
                        <g transform="matrix(2.62594,0,0,1.90273,-179.799,-10.8107)">
                            <text x="157.667px" y="205.789px" style="font-family:'Arial-BoldMT', 'Arial', sans-serif;font-weight:700;font-size:8px;">D</text>
                        </g>
                        <rect x="176.315" y="359.313" width="130.991" height="31.979" style="fill:none;stroke:rgb(96,165,250);stroke-width:2.18px;"/>
                    </g>
                    <g transform="matrix(0.219883,0,0,0.495725,186.33,41.5359)">
                        <rect x="176.315" y="359.313" width="130.991" height="31.979" style="fill:rgb(224,242,254);stroke:rgb(96,165,250);stroke-width:2.18px;"/>
                    </g>
                    <g transform="matrix(0.219883,0,0,0.495725,186.33,57.3884)">
                        <rect x="176.315" y="359.313" width="130.991" height="31.979" style="fill:rgb(224,242,254);stroke:rgb(96,165,250);stroke-width:2.18px;"/>
                    </g>
                    <g transform="matrix(0.219883,0,0,0.495725,186.33,73.241)">
                        <rect x="176.315" y="359.313" width="130.991" height="31.979" style="fill:rgb(224,242,254);stroke:rgb(96,165,250);stroke-width:2.18px;"/>
                    </g>
                    <g transform="matrix(0.219883,0,0,0.495725,215.393,25.6833)">
                        <rect x="176.315" y="359.313" width="130.991" height="31.979" style="fill:rgb(224,242,254);"/>
                        <g transform="matrix(2.62594,0,0,1.90273,-179.799,-10.8107)">
                            <text x="157.887px" y="205.789px" style="font-family:'Arial-BoldMT', 'Arial', sans-serif;font-weight:700;font-size:8px;">E</text>
                        </g>
                        <rect x="176.315" y="359.313" width="130.991" height="31.979" style="fill:none;stroke:rgb(96,165,250);stroke-width:2.18px;"/>
                    </g>
                    <g transform="matrix(0.219883,0,0,0.495725,215.393,41.5359)">
                        <rect x="176.315" y="359.313" width="130.991" height="31.979" style="fill:rgb(224,242,254);stroke:rgb(96,165,250);stroke-width:2.18px;"/>
                    </g>
                    <g transform="matrix(0.219883,0,0,0.495725,215.393,57.3884)">
                        <rect x="176.315" y="359.313" width="130.991" height="31.979" style="fill:rgb(224,242,254);stroke:rgb(96,165,250);stroke-width:2.18px;"/>
                    </g>
                    <g transform="matrix(0.219883,0,0,0.495725,215.393,73.241)">
                        <rect x="176.315" y="359.313" width="130.991" height="31.979" style="fill:rgb(224,242,254);stroke:rgb(96,165,250);stroke-width:2.18px;"/>
                    </g>
                </g>
                <g transform="matrix(0.5774,0,0,0.943232,23.1943,36.1767)">
                    <text x="153.881px" y="205.791px" style="font-family:'ArialMT', 'Arial', sans-serif;font-size:8px;">001</text>
                </g>
                <g transform="matrix(0.5774,0,0,0.943232,23.1943,52.0293)">
                    <text x="153.881px" y="205.791px" style="font-family:'ArialMT', 'Arial', sans-serif;font-size:8px;">122</text>
                </g>
                <g transform="matrix(0.5774,0,0,0.943232,23.1943,67.8819)">
                    <text x="153.881px" y="205.791px" style="font-family:'ArialMT', 'Arial', sans-serif;font-size:8px;">010</text>
                </g>
                <g transform="matrix(0.140656,0,0,0.495725,58.2732,-92.3178)">
                    <rect x="176.315" y="359.313" width="130.991" height="31.979" style="fill:rgb(243,232,255);stroke:rgb(192,132,252);stroke-width:2.44px;"/>
                </g>
                <g transform="matrix(0.140656,0,0,0.495725,58.2732,-76.4652)">
                    <rect x="176.315" y="359.313" width="130.991" height="31.979" style="fill:rgb(243,232,255);stroke:rgb(192,132,252);stroke-width:2.44px;"/>
                </g>
                <g transform="matrix(0.140656,0,0,0.495725,58.2732,-44.7601)">
                    <rect x="176.315" y="359.313" width="130.991" height="31.979" style="fill:rgb(243,232,255);stroke:rgb(192,132,252);stroke-width:2.44px;"/>
                </g>
                <g transform="matrix(1,0,0,1,-7.86804,0)">
                    <g transform="matrix(0.219883,0,0,0.495725,232.866,-108.17)">
                        <rect x="176.315" y="359.313" width="130.991" height="31.979" style="fill:rgb(224,242,254);"/>
                        <g transform="matrix(2.62594,0,0,1.90273,-179.799,-10.8107)">
                            <text x="157.667px" y="205.789px" style="font-family:'Arial-BoldMT', 'Arial', sans-serif;font-weight:700;font-size:8px;">C</text>
                        </g>
                        <rect x="176.315" y="359.313" width="130.991" height="31.979" style="fill:none;stroke:rgb(96,165,250);stroke-width:2.18px;"/>
                    </g>
                    <g transform="matrix(0.219883,0,0,0.495725,232.866,-92.3178)">
                        <rect x="176.315" y="359.313" width="130.991" height="31.979" style="fill:rgb(224,242,254);stroke:rgb(96,165,250);stroke-width:2.18px;"/>
                    </g>
                    <g transform="matrix(0.219883,0,0,0.495725,232.866,-76.4652)">
                        <rect x="176.315" y="359.313" width="130.991" height="31.979" style="fill:rgb(224,242,254);stroke:rgb(96,165,250);stroke-width:2.18px;"/>
                    </g>
                    <g transform="matrix(0.219883,0,0,0.495725,232.866,-60.6127)">
                        <rect x="176.315" y="359.313" width="130.991" height="31.979" style="fill:rgb(224,242,254);stroke:rgb(96,165,250);stroke-width:2.18px;"/>
                    </g>
                    <g transform="matrix(0.219883,0,0,0.495725,261.929,-108.17)">
                        <rect x="176.315" y="359.313" width="130.991" height="31.979" style="fill:rgb(224,242,254);"/>
                        <g transform="matrix(2.62594,0,0,1.90273,-179.799,-10.8107)">
                            <text x="157.667px" y="205.789px" style="font-family:'Arial-BoldMT', 'Arial', sans-serif;font-weight:700;font-size:8px;">D</text>
                        </g>
                        <rect x="176.315" y="359.313" width="130.991" height="31.979" style="fill:none;stroke:rgb(96,165,250);stroke-width:2.18px;"/>
                    </g>
                    <g transform="matrix(0.219883,0,0,0.495725,261.929,-92.3178)">
                        <rect x="176.315" y="359.313" width="130.991" height="31.979" style="fill:rgb(224,242,254);stroke:rgb(96,165,250);stroke-width:2.18px;"/>
                    </g>
                    <g transform="matrix(0.219883,0,0,0.495725,261.929,-76.4652)">
                        <rect x="176.315" y="359.313" width="130.991" height="31.979" style="fill:rgb(224,242,254);stroke:rgb(96,165,250);stroke-width:2.18px;"/>
                    </g>
                    <g transform="matrix(0.219883,0,0,0.495725,261.929,-60.6127)">
                        <rect x="176.315" y="359.313" width="130.991" height="31.979" style="fill:rgb(224,242,254);stroke:rgb(96,165,250);stroke-width:2.18px;"/>
                    </g>
                    <g transform="matrix(0.219883,0,0,0.495725,290.993,-108.17)">
                        <rect x="176.315" y="359.313" width="130.991" height="31.979" style="fill:rgb(224,242,254);"/>
                        <g transform="matrix(2.62594,0,0,1.90273,-179.799,-10.8107)">
                            <text x="157.887px" y="205.789px" style="font-family:'Arial-BoldMT', 'Arial', sans-serif;font-weight:700;font-size:8px;">E</text>
                        </g>
                        <rect x="176.315" y="359.313" width="130.991" height="31.979" style="fill:none;stroke:rgb(96,165,250);stroke-width:2.18px;"/>
                    </g>
                    <g transform="matrix(0.219883,0,0,0.495725,290.993,-92.3178)">
                        <rect x="176.315" y="359.313" width="130.991" height="31.979" style="fill:rgb(224,242,254);stroke:rgb(96,165,250);stroke-width:2.18px;"/>
                    </g>
                    <g transform="matrix(0.219883,0,0,0.495725,290.993,-76.4652)">
                        <rect x="176.315" y="359.313" width="130.991" height="31.979" style="fill:rgb(224,242,254);stroke:rgb(96,165,250);stroke-width:2.18px;"/>
                    </g>
                    <g transform="matrix(0.219883,0,0,0.495725,290.993,-60.6127)">
                        <rect x="176.315" y="359.313" width="130.991" height="31.979" style="fill:rgb(224,242,254);stroke:rgb(96,165,250);stroke-width:2.18px;"/>
                    </g>
                </g>
                <g transform="matrix(0.5774,0,0,0.943232,-34.9944,258.185)">
                    <text x="95.607px" y="59.385px" style="font-family:'Arial-BoldMT', 'Arial', sans-serif;font-weight:700;font-size:14px;fill:rgb(75,85,99);">Merging T<tspan x="161.451px 172.34px " y="59.385px 59.385px ">wo</tspan> DataFrames with a Shared Column (An Inner Join)</text>
                </g>
                <g transform="matrix(0.5774,0,0,0.943232,40.2413,-362.112)">
                    <text x="74.18px" y="451.052px" style="font-family:'ArialMT', 'Arial', sans-serif;font-size:13.333px;">dataframe1</text>
                </g>
                <g transform="matrix(0.5774,0,0,0.943232,-19.6458,-285.17)">
                    <text x="74.18px" y="450.097px" style="font-family:'ArialMT', 'Arial', sans-serif;font-size:12px;">Will not be</text>
                    <text x="74.18px" y="462.49px" style="font-family:'ArialMT', 'Arial', sans-serif;font-size:12px;">in result.</text>
                </g>
                <g transform="matrix(0.5774,0,0,0.943232,173.707,-362.112)">
                    <text x="74.18px" y="451.052px" style="font-family:'ArialMT', 'Arial', sans-serif;font-size:13.333px;">dataframe2</text>
                </g>
                <g transform="matrix(0.5774,0,0,0.943232,198.57,-343.703)">
                    <text x="152.57px" y="590.487px" style="font-family:'ArialMT', 'Arial', sans-serif;font-size:14px;">The result will only contain rows where the</text>
                    <text x="152.57px" y="604.945px" style="font-family:'ArialMT', 'Arial', sans-serif;font-size:14px;">ID was in both dataframes.</text>
                    <text x="152.57px" y="635.403px" style="font-family:'ArialMT', 'Arial', sans-serif;font-size:14px;">The result is a</text>
                    <text x="244.383px" y="635.403px" style="font-family:'Arial-BoldMT', 'Arial', sans-serif;font-weight:700;font-size:14px;">DataFrame</text>
                    <text x="320.638px" y="635.403px" style="font-family:'ArialMT', 'Arial', sans-serif;font-size:14px;">with a new</text>
                    <text x="152.57px" y="649.861px" style="font-family:'ArialMT', 'Arial', sans-serif;font-size:14px;">index.</text>
                </g>
                <g transform="matrix(0.575006,0,0,0.943232,-240.957,6.01896)">
                    <path d="M444.155,333.619L1197.28,333.619" style="fill:none;stroke:rgb(81,81,81);stroke-width:1.34px;"/>
                </g>
                <g transform="matrix(0.5774,0,0,0.943232,23.1943,-97.6769)">
                    <text x="153.881px" y="205.791px" style="font-family:'ArialMT', 'Arial', sans-serif;font-size:8px;">001</text>
                </g>
                <g transform="matrix(0.5774,0,0,0.943232,23.1943,-81.8244)">
                    <text x="153.881px" y="205.791px" style="font-family:'ArialMT', 'Arial', sans-serif;font-size:8px;">122</text>
                </g>
                <g transform="matrix(0.5774,0,0,0.943232,23.1943,-50.1192)">
                    <text x="153.881px" y="205.791px" style="font-family:'ArialMT', 'Arial', sans-serif;font-size:8px;">010</text>
                </g>
                <g transform="matrix(0.5774,0,0,0.943232,156.66,-97.6769)">
                    <text x="153.881px" y="205.791px" style="font-family:'ArialMT', 'Arial', sans-serif;font-size:8px;">001</text>
                </g>
                <g transform="matrix(0.5774,0,0,0.943232,-7.86804,-359.06)">
                    <g transform="matrix(1,-0,-0,1,13.3448,380.396)">
                        <path d="M329.563,97.644L327.563,99.644L329.563,101.644" style="fill:none;stroke:rgb(75,85,99);stroke-width:1.33px;stroke-linejoin:miter;stroke-miterlimit:10;"/>
                        <path d="M372.364,97.644L374.364,99.644L372.364,101.644" style="fill:none;stroke:rgb(75,85,99);stroke-width:1.33px;stroke-linejoin:miter;stroke-miterlimit:10;"/>
                        <path d="M327.563,99.644L374.364,99.644" style="fill:none;stroke:rgb(75,85,99);stroke-width:1.33px;"/>
                    </g>
                </g>
                <g transform="matrix(0.5774,0,0,0.943232,-7.86804,-343.208)">
                    <g transform="matrix(1,-0,-0,1,13.3448,363.59)">
                        <path d="M329.563,114.451L327.563,116.451L329.563,118.451" style="fill:none;stroke:rgb(75,85,99);stroke-width:1.33px;stroke-linejoin:miter;stroke-miterlimit:10;"/>
                        <path d="M372.364,114.451L374.364,116.451L372.364,118.451" style="fill:none;stroke:rgb(75,85,99);stroke-width:1.33px;stroke-linejoin:miter;stroke-miterlimit:10;"/>
                        <path d="M327.563,116.451L374.364,116.451" style="fill:none;stroke:rgb(75,85,99);stroke-width:1.33px;"/>
                    </g>
                </g>
                <g transform="matrix(0.5774,0,0,0.943232,-7.86804,-327.355)">
                    <g transform="matrix(1,-0,-0,1,13.3448,346.783)">
                        <path d="M328.749,147.213L327.511,149.756L330.054,150.994" style="fill:none;stroke:rgb(75,85,99);stroke-width:1.33px;stroke-linejoin:miter;stroke-miterlimit:10;"/>
                        <path d="M371.872,132.327L374.415,133.565L373.177,136.108" style="fill:none;stroke:rgb(75,85,99);stroke-width:1.33px;stroke-linejoin:miter;stroke-miterlimit:10;"/>
                        <path d="M327.511,149.756C333.547,147.673 368.379,135.649 374.415,133.565" style="fill:none;stroke:rgb(75,85,99);stroke-width:1.33px;"/>
                    </g>
                </g>
                <g transform="matrix(0.5774,0,0,0.943232,156.66,-81.8244)">
                    <text x="153.881px" y="205.791px" style="font-family:'ArialMT', 'Arial', sans-serif;font-size:8px;">122</text>
                </g>
                <g transform="matrix(0.5774,0,0,0.943232,156.66,-65.9718)">
                    <text x="153.881px" y="205.791px" style="font-family:'ArialMT', 'Arial', sans-serif;font-size:8px;">010</text>
                </g>
                <g transform="matrix(0.5774,0,0,0.943232,71.6619,-393.401)">
                    <text x="74.18px" y="451.306px" style="font-family:'CourierNewPSMT', 'Courier New', monospace;font-size:16px;">pd.merge(dataframe1, dataframe2, on=&quot;ID&quot;)</text>
                </g>
                <g id="red" transform="matrix(1,0,0,1,-7.86804,0)">
                    <g transform="matrix(0.140656,0,0,0.495725,66.1412,-60.6127)">
                        <rect x="176.315" y="359.313" width="130.991" height="31.979" style="fill:rgb(254,226,226);stroke:rgb(248,113,113);stroke-width:2.44px;"/>
                    </g>
                    <g transform="matrix(0.140656,0,0,0.495725,66.1412,-28.9075)">
                        <rect x="176.315" y="359.313" width="130.991" height="31.979" style="fill:rgb(254,226,226);stroke:rgb(248,113,113);stroke-width:2.44px;"/>
                    </g>
                    <g transform="matrix(0.219883,0,0,0.495725,70.597,-60.6127)">
                        <rect x="176.315" y="359.313" width="130.991" height="31.979" style="fill:rgb(254,226,226);stroke:rgb(248,113,113);stroke-width:2.18px;"/>
                    </g>
                    <g transform="matrix(0.219883,0,0,0.495725,99.6606,-60.6127)">
                        <rect x="176.315" y="359.313" width="130.991" height="31.979" style="fill:rgb(254,226,226);stroke:rgb(248,113,113);stroke-width:2.18px;"/>
                    </g>
                    <g transform="matrix(0.219883,0,0,0.495725,128.724,-60.6127)">
                        <rect x="176.315" y="359.313" width="130.991" height="31.979" style="fill:rgb(254,226,226);stroke:rgb(248,113,113);stroke-width:2.18px;"/>
                    </g>
                    <g transform="matrix(0.5774,0,0,0.943232,31.0623,-65.9718)">
                        <text x="154.178px" y="205.791px" style="font-family:'ArialMT', 'Arial', sans-serif;font-size:8px;">1<tspan x="158.034px 162.483px " y="205.791px 205.791px ">13</tspan></text>
                    </g>
                    <g transform="matrix(0.219883,0,0,0.495725,70.597,-28.9075)">
                        <rect x="176.315" y="359.313" width="130.991" height="31.979" style="fill:rgb(254,226,226);stroke:rgb(248,113,113);stroke-width:2.18px;"/>
                    </g>
                    <g transform="matrix(0.219883,0,0,0.495725,99.6606,-28.9075)">
                        <rect x="176.315" y="359.313" width="130.991" height="31.979" style="fill:rgb(254,226,226);stroke:rgb(248,113,113);stroke-width:2.18px;"/>
                    </g>
                    <g transform="matrix(0.219883,0,0,0.495725,128.724,-28.9075)">
                        <rect x="176.315" y="359.313" width="130.991" height="31.979" style="fill:rgb(254,226,226);stroke:rgb(248,113,113);stroke-width:2.18px;"/>
                    </g>
                    <g transform="matrix(0.5774,0,0,0.943232,31.0623,-34.2667)">
                        <text x="153.881px" y="205.791px" style="font-family:'ArialMT', 'Arial', sans-serif;font-size:8px;">123</text>
                    </g>
                </g>
                <g transform="matrix(0.5774,0,0,0.943232,-7.86804,-359.06)">
                    <g transform="matrix(1,-0,-0,1,13.3448,380.396)">
                        <path d="M142.316,136.303L143.299,133.651L140.647,132.667" style="fill:none;stroke:rgb(248,113,113);stroke-width:1.33px;stroke-linejoin:miter;stroke-miterlimit:10;"/>
                        <path d="M142.316,163.825L143.299,166.477L140.647,167.461" style="fill:none;stroke:rgb(248,113,113);stroke-width:1.33px;stroke-linejoin:miter;stroke-miterlimit:10;"/>
                        <path d="M143.299,133.651C137.786,136.181 107.538,150.064 107.538,150.064C107.538,150.064 137.786,163.947 143.299,166.477" style="fill:none;stroke:rgb(248,113,113);stroke-width:1.33px;"/>
                    </g>
                </g>
                <g transform="matrix(0.5774,0,0,0.943232,-78.3974,-225.986)">
                    <text x="279.651px" y="445.987px" style="font-family:'ArialMT', 'Arial', sans-serif;font-size:14px;">Result:</text>
                </g>
            </g>
        </g>
    </g>
</svg>
